<svg width="21" height="21" viewBox="0 0 21 21" fill="none" xmlns="http://www.w3.org/2000/svg">
<g clip-path="url(#clip0_3_2)">
<path d="M21 10.7411C21 10.0273 20.941 9.30973 20.815 8.60754H10.7106V12.6509H16.4969C16.2568 13.955 15.4853 15.1086 14.3556 15.8416V18.4652H17.8077C19.8349 16.6364 21 13.9357 21 10.7411Z" fill="#4285F4"/>
<path d="M10.7106 21.0001C13.5998 21.0001 16.0364 20.0702 17.8116 18.4652L14.3595 15.8417C13.3991 16.4821 12.1591 16.8448 10.7145 16.8448C7.91977 16.8448 5.55013 14.9967 4.6999 12.5121H1.13757V15.2167C2.95613 18.7623 6.66016 21.0001 10.7106 21.0001V21.0001Z" fill="#34A853"/>
<path d="M4.69599 12.512C4.24725 11.208 4.24725 9.79587 4.69599 8.49181V5.78723H1.1376C-0.381803 8.75416 -0.381803 12.2497 1.1376 15.2166L4.69599 12.512V12.512Z" fill="#FBBC04"/>
<path d="M10.7106 4.15522C12.2379 4.13207 13.714 4.69536 14.82 5.72935L17.8785 2.73156C15.9419 0.949084 13.3715 -0.0308902 10.7106 -2.48391e-05C6.66016 -2.48391e-05 2.95613 2.23771 1.13757 5.78723L4.69596 8.4918C5.54226 6.00328 7.91583 4.15522 10.7106 4.15522V4.15522Z" fill="#EA4335"/>
</g>
<defs>
<clipPath id="clip0_3_2">
<rect width="21" height="21" fill="white"/>
</clipPath>
</defs>
</svg>
